<svg width="720" height="720" viewBox="0 0 720 720" fill="none" xmlns="http://www.w3.org/2000/svg">
<rect width="720" height="720" rx="360" fill="#F4F8FE"/>
<path d="M375.193 304.243L395.475 324.525C404.793 333.842 412.184 344.903 417.227 357.077C422.27 369.25 424.866 382.298 424.866 395.475C424.866 408.652 422.27 421.699 417.227 433.873C412.184 446.047 404.793 457.108 395.475 466.425L390.401 471.484C371.584 490.302 346.062 500.873 319.451 500.873C292.84 500.873 267.318 490.302 248.501 471.484C229.684 452.667 219.113 427.146 219.113 400.534C219.113 373.923 229.684 348.402 248.501 329.584L268.783 349.866C262.08 356.51 256.756 364.413 253.115 373.121C249.475 381.828 247.59 391.169 247.57 400.607C247.549 410.044 249.393 419.393 252.995 428.117C256.597 436.84 261.887 444.766 268.56 451.44C275.234 458.113 283.16 463.403 291.883 467.005C300.606 470.607 309.955 472.451 319.393 472.43C328.831 472.409 338.172 470.525 346.879 466.885C355.587 463.244 363.489 457.92 370.134 451.217L375.208 446.143C388.643 432.704 396.191 414.478 396.191 395.475C396.191 376.471 388.643 358.246 375.208 344.806L354.926 324.525L375.208 304.257L375.193 304.243ZM471.485 390.401L451.217 370.133C457.92 363.489 463.244 355.587 466.885 346.879C470.525 338.172 472.41 328.831 472.43 319.393C472.451 309.955 470.607 300.606 467.005 291.883C463.403 283.16 458.113 275.234 451.44 268.56C444.766 261.887 436.84 256.597 428.117 252.995C419.394 249.393 410.045 247.549 400.607 247.57C391.169 247.59 381.828 249.475 373.121 253.115C364.413 256.755 356.511 262.08 349.866 268.782L344.792 273.856C331.357 287.296 323.809 305.521 323.809 324.525C323.809 343.528 331.357 361.754 344.792 375.193L365.074 395.475L344.792 415.742L324.525 395.475C315.207 386.158 307.816 375.097 302.773 362.923C297.73 350.749 295.134 337.702 295.134 324.525C295.134 311.348 297.73 298.3 302.773 286.127C307.816 273.953 315.207 262.892 324.525 253.575L329.599 248.515C348.416 229.698 373.938 219.127 400.549 219.127C427.16 219.127 452.682 229.698 471.499 248.515C490.316 267.332 500.887 292.854 500.887 319.465C500.887 346.077 490.316 371.598 471.499 390.415L471.485 390.401Z" fill="#A974FF"/>
</svg>
